<svg width="213" height="33" viewBox="0 0 213 33" fill="none" xmlns="http://www.w3.org/2000/svg">
<g clip-path="url(#clip0_1949_48)">
<path d="M15.2831 13.0029C15.0072 12.5936 14.4057 12.5907 14.1259 12.9973L9.5567 19.6378C9.3185 19.984 8.83104 20.0438 8.51626 19.7653L5.86231 17.4179C5.57269 17.1617 5.54562 16.7193 5.80183 16.4297L5.86054 16.3634C6.11667 16.0739 6.55896 16.0468 6.84851 16.3029L8.24273 17.5358C8.5575 17.8142 9.0449 17.7545 9.2831 17.4083L14.1389 10.3525C14.4188 9.94599 15.0202 9.94889 15.296 10.3582L20.4554 18.0131C20.7237 18.4113 21.3042 18.4272 21.594 18.0442L26.8653 11.0785C27.0987 10.7702 27.5378 10.7094 27.846 10.9428L27.9172 10.9966C28.2254 11.23 28.2861 11.669 28.0528 11.9772L21.5233 20.6034C21.2335 20.9863 20.6531 20.9704 20.3847 20.5722L15.2831 13.0029Z" fill="#588157" stroke="#588157" stroke-width="0.8"/>
<path d="M43.704 24V7.08H55.296V9.984H47.256V13.944H54.768V16.872H47.256V21.096H55.296V24H43.704ZM58.2353 24V7.08H60.9953L69.4433 17.856V7.08H72.8993V24H70.1633L61.6913 13.2V24H58.2353ZM80.3376 24V10.152H74.7456V7.08H89.6496V10.152H84.0576V24H80.3376ZM96.9786 24.264C95.6506 24.264 94.3946 24.096 93.2106 23.76C92.0426 23.424 91.0666 22.968 90.2826 22.392L91.3626 19.464C92.1146 19.992 92.9706 20.408 93.9306 20.712C94.9066 21.016 95.9226 21.168 96.9786 21.168C98.1306 21.168 98.9546 20.992 99.4506 20.64C99.9626 20.272 100.219 19.816 100.219 19.272C100.219 18.808 100.043 18.44 99.6906 18.168C99.3386 17.896 98.7226 17.664 97.8426 17.472L95.1306 16.896C92.1066 16.256 90.5946 14.688 90.5946 12.192C90.5946 11.12 90.8826 10.184 91.4586 9.384C92.0346 8.568 92.8346 7.936 93.8586 7.488C94.8986 7.04 96.0986 6.816 97.4586 6.816C98.6266 6.816 99.7226 6.984 100.747 7.32C101.771 7.656 102.619 8.128 103.291 8.736L102.211 11.472C100.899 10.432 99.3066 9.912 97.4346 9.912C96.4266 9.912 95.6426 10.112 95.0826 10.512C94.5386 10.896 94.2666 11.4 94.2666 12.024C94.2666 12.488 94.4346 12.864 94.7706 13.152C95.1066 13.44 95.6906 13.672 96.5226 13.848L99.2346 14.424C102.339 15.096 103.891 16.616 103.891 18.984C103.891 20.04 103.603 20.968 103.027 21.768C102.467 22.552 101.667 23.168 100.627 23.616C99.6026 24.048 98.3866 24.264 96.9786 24.264ZM112.985 24V7.08H120.713C122.601 7.08 124.057 7.56 125.081 8.52C126.105 9.464 126.617 10.784 126.617 12.48C126.617 14.176 126.105 15.504 125.081 16.464C124.057 17.424 122.601 17.904 120.713 17.904H116.705V24H112.985ZM116.705 15.024H120.089C122.057 15.024 123.041 14.176 123.041 12.48C123.041 10.816 122.057 9.984 120.089 9.984H116.705V15.024ZM133.003 24.264C131.483 24.264 130.371 23.872 129.667 23.088C128.963 22.288 128.611 21.104 128.611 19.536V7.08H132.235V19.392C132.235 20.672 132.803 21.312 133.939 21.312C134.115 21.312 134.283 21.304 134.443 21.288C134.619 21.272 134.787 21.24 134.947 21.192L134.899 24C134.291 24.176 133.659 24.264 133.003 24.264ZM140.587 24.264C139.707 24.264 138.931 24.096 138.259 23.76C137.587 23.424 137.051 22.968 136.651 22.392C136.267 21.816 136.075 21.168 136.075 20.448C136.075 19.6 136.299 18.92 136.747 18.408C137.195 17.896 137.923 17.536 138.931 17.328C139.939 17.104 141.275 16.992 142.939 16.992H143.803V16.584C143.803 15.88 143.643 15.384 143.323 15.096C143.003 14.792 142.459 14.64 141.691 14.64C141.051 14.64 140.371 14.744 139.651 14.952C138.947 15.144 138.243 15.44 137.539 15.84L136.555 13.416C136.971 13.144 137.475 12.896 138.067 12.672C138.675 12.448 139.307 12.28 139.963 12.168C140.619 12.04 141.243 11.976 141.835 11.976C143.659 11.976 145.019 12.392 145.915 13.224C146.811 14.04 147.259 15.312 147.259 17.04V24H143.875V22.224C143.635 22.848 143.227 23.344 142.651 23.712C142.091 24.08 141.403 24.264 140.587 24.264ZM141.403 21.84C142.075 21.84 142.643 21.608 143.107 21.144C143.571 20.68 143.803 20.08 143.803 19.344V18.864H142.963C141.731 18.864 140.859 18.976 140.347 19.2C139.835 19.408 139.579 19.776 139.579 20.304C139.579 20.752 139.731 21.12 140.035 21.408C140.355 21.696 140.811 21.84 141.403 21.84ZM155.746 24.264C152.434 24.264 150.778 22.656 150.778 19.44V14.928H148.546V12.216H150.778V8.76H154.402V12.216H157.882V14.928H154.402V19.296C154.402 19.968 154.554 20.472 154.858 20.808C155.178 21.144 155.682 21.312 156.37 21.312C156.578 21.312 156.794 21.288 157.018 21.24C157.258 21.192 157.514 21.128 157.786 21.048L158.314 23.688C157.978 23.864 157.578 24 157.114 24.096C156.65 24.208 156.194 24.264 155.746 24.264ZM160.484 24V14.928H158.252V12.216H160.484C160.516 10.552 160.996 9.304 161.924 8.472C162.868 7.624 164.3 7.144 166.22 7.032L167.54 6.936L167.756 9.576L166.628 9.648C165.7 9.696 165.044 9.896 164.66 10.248C164.292 10.584 164.108 11.104 164.108 11.808V12.216H167.18V14.928H164.108V24H160.484ZM174.118 24.264C172.855 24.264 171.751 24.016 170.807 23.52C169.879 23.008 169.159 22.296 168.646 21.384C168.135 20.456 167.879 19.36 167.879 18.096C167.879 16.848 168.135 15.768 168.646 14.856C169.159 13.928 169.879 13.216 170.807 12.72C171.751 12.224 172.855 11.976 174.118 11.976C175.383 11.976 176.479 12.224 177.407 12.72C178.351 13.216 179.079 13.928 179.591 14.856C180.119 15.768 180.383 16.848 180.383 18.096C180.383 19.36 180.119 20.456 179.591 21.384C179.079 22.296 178.351 23.008 177.407 23.52C176.479 24.016 175.383 24.264 174.118 24.264ZM174.118 21.552C174.887 21.552 175.511 21.272 175.991 20.712C176.487 20.152 176.735 19.28 176.735 18.096C176.735 16.928 176.487 16.072 175.991 15.528C175.511 14.968 174.887 14.688 174.118 14.688C173.351 14.688 172.727 14.968 172.247 15.528C171.767 16.072 171.527 16.928 171.527 18.096C171.527 19.28 171.767 20.152 172.247 20.712C172.727 21.272 173.351 21.552 174.118 21.552ZM182.587 24V12.216H186.139V14.256C186.699 12.88 187.899 12.12 189.739 11.976L190.795 11.904L191.011 14.952L188.971 15.168C187.179 15.344 186.283 16.256 186.283 17.904V24H182.587ZM192.526 24V12.216H196.078V13.92C196.43 13.312 196.91 12.84 197.518 12.504C198.142 12.152 198.862 11.976 199.678 11.976C200.51 11.976 201.214 12.16 201.79 12.528C202.382 12.896 202.83 13.456 203.134 14.208C203.502 13.504 204.03 12.96 204.718 12.576C205.422 12.176 206.198 11.976 207.046 11.976C208.39 11.976 209.39 12.384 210.046 13.2C210.702 14 211.03 15.24 211.03 16.92V24H207.406V17.04C207.406 16.256 207.278 15.688 207.022 15.336C206.782 14.968 206.366 14.784 205.774 14.784C205.086 14.784 204.55 15.024 204.166 15.504C203.782 15.984 203.59 16.664 203.59 17.544V24H199.966V17.04C199.966 16.256 199.838 15.688 199.582 15.336C199.326 14.968 198.91 14.784 198.334 14.784C197.646 14.784 197.11 15.024 196.726 15.504C196.342 15.984 196.15 16.664 196.15 17.544V24H192.526Z" fill="#588157"/>
<mask id="mask0_1949_48" style="mask-type:alpha" maskUnits="userSpaceOnUse" x="0" y="4" width="34" height="24">
<rect y="4" width="34" height="24" fill="#D9D9D9"/>
</mask>
<g mask="url(#mask0_1949_48)">
<g filter="url(#filter0_d_1949_48)">
<path d="M31.875 4H2.125C0.950937 4 0 4.82615 0 5.84615V26.1538C0 27.1738 0.950937 28 2.125 28H31.875C33.0491 28 34 27.1738 34 26.1538V5.84615C34 4.82615 33.0491 4 31.875 4ZM2.125 26.1538V5.84615H31.875V26.1538H2.125Z" fill="#588157"/>
<path d="M31.875 4H2.125C0.950937 4 0 4.82615 0 5.84615V26.1538C0 27.1738 0.950937 28 2.125 28H31.875C33.0491 28 34 27.1738 34 26.1538V5.84615C34 4.82615 33.0491 4 31.875 4ZM2.125 26.1538V5.84615H31.875V26.1538H2.125Z" stroke="#588157" stroke-width="2.2"/>
</g>
</g>
</g>
<defs>
<filter id="filter0_d_1949_48" x="-5.10001" y="2.89999" width="44.2" height="34.2" filterUnits="userSpaceOnUse" color-interpolation-filters="sRGB">
<feFlood flood-opacity="0" result="BackgroundImageFix"/>
<feColorMatrix in="SourceAlpha" type="matrix" values="0 0 0 0 0 0 0 0 0 0 0 0 0 0 0 0 0 0 127 0" result="hardAlpha"/>
<feOffset dy="4"/>
<feGaussianBlur stdDeviation="2"/>
<feComposite in2="hardAlpha" operator="out"/>
<feColorMatrix type="matrix" values="0 0 0 0 0 0 0 0 0 0 0 0 0 0 0 0 0 0 0.25 0"/>
<feBlend mode="normal" in2="BackgroundImageFix" result="effect1_dropShadow_1949_48"/>
<feBlend mode="normal" in="SourceGraphic" in2="effect1_dropShadow_1949_48" result="shape"/>
</filter>
<clipPath id="clip0_1949_48">
<rect width="213" height="33" fill="white"/>
</clipPath>
</defs>
</svg>
