<svg width="213" height="33" viewBox="0 0 213 33" fill="none" xmlns="http://www.w3.org/2000/svg">
<path d="M15.2831 13.0029C15.0072 12.5936 14.4057 12.5907 14.1259 12.9973L9.5567 19.6378C9.3185 19.984 8.83104 20.0438 8.51626 19.7653L5.86231 17.4179C5.57269 17.1617 5.54562 16.7193 5.80183 16.4297L5.86054 16.3634C6.11667 16.0739 6.55896 16.0468 6.84851 16.3029L8.24273 17.5358C8.5575 17.8142 9.0449 17.7545 9.2831 17.4083L14.1389 10.3525C14.4188 9.94599 15.0202 9.94889 15.296 10.3582L20.4554 18.0131C20.7237 18.4113 21.3042 18.4272 21.594 18.0442L26.8653 11.0785C27.0987 10.7702 27.5378 10.7094 27.846 10.9428L27.9172 10.9966C28.2254 11.23 28.2861 11.669 28.0528 11.9772L21.5233 20.6034C21.2335 20.9863 20.6531 20.9704 20.3847 20.5722L15.2831 13.0029Z" fill="#588157" stroke="#588157" stroke-width="0.8"/>
<path d="M43.704 24V7.08H55.296V9.984H47.256V13.944H54.768V16.872H47.256V21.096H55.296V24H43.704ZM58.2353 24V7.08H60.9953L69.4433 17.856V7.08H72.8993V24H70.1633L61.6913 13.2V24H58.2353ZM80.3376 24V10.152H74.7456V7.08H89.6496V10.152H84.0576V24H80.3376ZM96.9786 24.264C95.6506 24.264 94.3946 24.096 93.2106 23.76C92.0426 23.424 91.0666 22.968 90.2826 22.392L91.3626 19.464C92.1146 19.992 92.9706 20.408 93.9306 20.712C94.9066 21.016 95.9226 21.168 96.9786 21.168C98.1306 21.168 98.9546 20.992 99.4506 20.64C99.9626 20.272 100.219 19.816 100.219 19.272C100.219 18.808 100.043 18.44 99.6906 18.168C99.3386 17.896 98.7226 17.664 97.8426 17.472L95.1306 16.896C92.1066 16.256 90.5946 14.688 90.5946 12.192C90.5946 11.12 90.8826 10.184 91.4586 9.384C92.0346 8.568 92.8346 7.936 93.8586 7.488C94.8986 7.04 96.0986 6.816 97.4586 6.816C98.6266 6.816 99.7226 6.984 100.747 7.32C101.771 7.656 102.619 8.128 103.291 8.736L102.211 11.472C100.899 10.432 99.3066 9.912 97.4346 9.912C96.4266 9.912 95.6426 10.112 95.0826 10.512C94.5386 10.896 94.2666 11.4 94.2666 12.024C94.2666 12.488 94.4346 12.864 94.7706 13.152C95.1066 13.44 95.6906 13.672 96.5226 13.848L99.2346 14.424C102.339 15.096 103.891 16.616 103.891 18.984C103.891 20.04 103.603 20.968 103.027 21.768C102.467 22.552 101.667 23.168 100.627 23.616C99.6026 24.048 98.3866 24.264 96.9786 24.264ZM112.985 24V7.08H120.737C122.545 7.08 123.937 7.472 124.913 8.256C125.905 9.04 126.401 10.112 126.401 11.472C126.401 12.368 126.177 13.144 125.729 13.8C125.281 14.44 124.657 14.92 123.857 15.24C124.817 15.512 125.553 15.992 126.065 16.68C126.593 17.368 126.857 18.216 126.857 19.224C126.857 20.728 126.329 21.904 125.273 22.752C124.233 23.584 122.809 24 121.001 24H112.985ZM116.537 14.04H120.089C121.913 14.04 122.825 13.336 122.825 11.928C122.825 10.536 121.913 9.84 120.089 9.84H116.537V14.04ZM116.537 21.24H120.497C121.457 21.24 122.161 21.056 122.609 20.688C123.057 20.32 123.281 19.76 123.281 19.008C123.281 18.272 123.057 17.72 122.609 17.352C122.161 16.984 121.457 16.8 120.497 16.8H116.537V21.24ZM133.345 24.264C132.465 24.264 131.689 24.096 131.017 23.76C130.345 23.424 129.809 22.968 129.409 22.392C129.025 21.816 128.833 21.168 128.833 20.448C128.833 19.6 129.057 18.92 129.505 18.408C129.953 17.896 130.681 17.536 131.689 17.328C132.697 17.104 134.033 16.992 135.697 16.992H136.561V16.584C136.561 15.88 136.401 15.384 136.081 15.096C135.761 14.792 135.217 14.64 134.449 14.64C133.809 14.64 133.129 14.744 132.409 14.952C131.705 15.144 131.001 15.44 130.297 15.84L129.313 13.416C129.729 13.144 130.233 12.896 130.825 12.672C131.433 12.448 132.065 12.28 132.721 12.168C133.377 12.04 134.001 11.976 134.593 11.976C136.417 11.976 137.777 12.392 138.673 13.224C139.569 14.04 140.017 15.312 140.017 17.04V24H136.633V22.224C136.393 22.848 135.985 23.344 135.409 23.712C134.849 24.08 134.161 24.264 133.345 24.264ZM134.161 21.84C134.833 21.84 135.401 21.608 135.865 21.144C136.329 20.68 136.561 20.08 136.561 19.344V18.864H135.721C134.489 18.864 133.617 18.976 133.105 19.2C132.593 19.408 132.337 19.776 132.337 20.304C132.337 20.752 132.489 21.12 132.793 21.408C133.113 21.696 133.569 21.84 134.161 21.84ZM148.456 24.264C147.176 24.264 146.056 24.016 145.096 23.52C144.152 23.008 143.424 22.288 142.912 21.36C142.4 20.432 142.144 19.336 142.144 18.072C142.144 16.808 142.4 15.72 142.912 14.808C143.424 13.896 144.152 13.2 145.096 12.72C146.056 12.224 147.176 11.976 148.456 11.976C149.208 11.976 149.968 12.088 150.736 12.312C151.504 12.536 152.128 12.856 152.608 13.272L151.6 15.768C151.2 15.448 150.752 15.2 150.256 15.024C149.76 14.832 149.28 14.736 148.816 14.736C147.872 14.736 147.136 15.032 146.608 15.624C146.096 16.2 145.84 17.024 145.84 18.096C145.84 19.152 146.096 19.984 146.608 20.592C147.136 21.184 147.872 21.48 148.816 21.48C149.264 21.48 149.736 21.392 150.232 21.216C150.744 21.04 151.2 20.784 151.6 20.448L152.608 22.944C152.128 23.36 151.504 23.688 150.736 23.928C149.968 24.152 149.208 24.264 148.456 24.264ZM154.181 24V7.08H157.805V17.088H157.853L162.197 12.216H166.493L161.501 17.856L166.733 24H162.365L157.853 18.912H157.805V24H154.181ZM173.496 24.264C172.104 24.264 170.904 24.016 169.896 23.52C168.904 23.008 168.136 22.296 167.592 21.384C167.064 20.456 166.8 19.368 166.8 18.12C166.8 16.904 167.056 15.84 167.568 14.928C168.096 14 168.808 13.28 169.704 12.768C170.616 12.24 171.664 11.976 172.848 11.976C174.56 11.976 175.92 12.52 176.928 13.608C177.936 14.68 178.44 16.136 178.44 17.976V18.888H170.256C170.384 19.816 170.72 20.496 171.264 20.928C171.824 21.344 172.592 21.552 173.568 21.552C174.208 21.552 174.856 21.456 175.512 21.264C176.168 21.072 176.76 20.776 177.288 20.376L178.248 22.8C177.656 23.248 176.928 23.608 176.064 23.88C175.216 24.136 174.36 24.264 173.496 24.264ZM172.992 14.376C172.224 14.376 171.6 14.608 171.12 15.072C170.656 15.536 170.368 16.184 170.256 17.016H175.44C175.344 15.256 174.528 14.376 172.992 14.376ZM180.548 24V12.216H184.1V13.944C184.5 13.304 185.036 12.816 185.708 12.48C186.38 12.144 187.132 11.976 187.964 11.976C189.356 11.976 190.396 12.384 191.084 13.2C191.772 14 192.116 15.24 192.116 16.92V24H188.492V17.088C188.492 16.272 188.34 15.688 188.036 15.336C187.732 14.968 187.284 14.784 186.692 14.784C185.924 14.784 185.308 15.024 184.844 15.504C184.396 15.984 184.172 16.624 184.172 17.424V24H180.548ZM199.406 24.264C198.382 24.264 197.478 24.016 196.694 23.52C195.926 23.008 195.326 22.296 194.894 21.384C194.462 20.456 194.246 19.36 194.246 18.096C194.246 16.832 194.462 15.744 194.894 14.832C195.326 13.92 195.926 13.216 196.694 12.72C197.478 12.224 198.382 11.976 199.406 11.976C200.19 11.976 200.91 12.144 201.566 12.48C202.222 12.816 202.718 13.264 203.054 13.824V7.08H206.678V24H203.126V22.224C202.806 22.848 202.31 23.344 201.638 23.712C200.982 24.08 200.238 24.264 199.406 24.264ZM200.486 21.552C201.254 21.552 201.878 21.272 202.358 20.712C202.854 20.152 203.102 19.28 203.102 18.096C203.102 16.928 202.854 16.072 202.358 15.528C201.878 14.968 201.254 14.688 200.486 14.688C199.718 14.688 199.094 14.968 198.614 15.528C198.134 16.072 197.894 16.928 197.894 18.096C197.894 19.28 198.134 20.152 198.614 20.712C199.094 21.272 199.718 21.552 200.486 21.552Z" fill="#588157"/>
<mask id="mask0_1949_48" style="mask-type:alpha" maskUnits="userSpaceOnUse" x="0" y="4" width="34" height="24">
<rect y="4" width="34" height="24" fill="#D9D9D9"/>
</mask>
<g mask="url(#mask0_1949_48)">
<g filter="url(#filter0_d_1949_48)">
<path d="M31.875 4H2.125C0.950937 4 0 4.82615 0 5.84615V26.1538C0 27.1738 0.950937 28 2.125 28H31.875C33.0491 28 34 27.1738 34 26.1538V5.84615C34 4.82615 33.0491 4 31.875 4ZM2.125 26.1538V5.84615H31.875V26.1538H2.125Z" fill="#588157"/>
<path d="M31.875 4H2.125C0.950937 4 0 4.82615 0 5.84615V26.1538C0 27.1738 0.950937 28 2.125 28H31.875C33.0491 28 34 27.1738 34 26.1538V5.84615C34 4.82615 33.0491 4 31.875 4ZM2.125 26.1538V5.84615H31.875V26.1538H2.125Z" stroke="#588157" stroke-width="2.2"/>
</g>
</g>
<defs>
<filter id="filter0_d_1949_48" x="-5.10001" y="2.89999" width="44.2" height="34.2" filterUnits="userSpaceOnUse" color-interpolation-filters="sRGB">
<feFlood flood-opacity="0" result="BackgroundImageFix"/>
<feColorMatrix in="SourceAlpha" type="matrix" values="0 0 0 0 0 0 0 0 0 0 0 0 0 0 0 0 0 0 127 0" result="hardAlpha"/>
<feOffset dy="4"/>
<feGaussianBlur stdDeviation="2"/>
<feComposite in2="hardAlpha" operator="out"/>
<feColorMatrix type="matrix" values="0 0 0 0 0 0 0 0 0 0 0 0 0 0 0 0 0 0 0.25 0"/>
<feBlend mode="normal" in2="BackgroundImageFix" result="effect1_dropShadow_1949_48"/>
<feBlend mode="normal" in="SourceGraphic" in2="effect1_dropShadow_1949_48" result="shape"/>
</filter>
</defs>
</svg>
