<svg width="37" height="27" viewBox="0 0 37 27" fill="none" xmlns="http://www.w3.org/2000/svg">
<path d="M33.004 1.32744H3.25395C2.07989 1.32744 1.12895 2.15359 1.12895 3.17359V23.4813C1.12895 24.5013 2.07989 25.3274 3.25395 25.3274H33.004C34.178 25.3274 35.129 24.5013 35.129 23.4813V3.17359C35.129 2.15359 34.178 1.32744 33.004 1.32744ZM3.25395 23.4813V3.17359H33.004V23.4813H3.25395Z" fill="#588157" stroke="#588157" stroke-width="2.2"/>
<path d="M16.0594 10.9007C15.7832 10.4951 15.1862 10.4922 14.906 10.8951L10.0657 17.8572C9.82743 18.1999 9.34402 18.2592 9.02991 17.9843L6.20021 15.5072C5.90717 15.2506 5.87985 14.8043 6.13942 14.5139L6.23988 14.4016C6.49563 14.1155 6.93402 14.0886 7.22276 14.3414L8.7433 15.6722C9.05739 15.9471 9.54074 15.8878 9.77904 15.5451L14.9197 8.15237C15.1998 7.7495 15.7968 7.75241 16.073 8.15799L21.5363 16.1805C21.8049 16.575 22.381 16.5909 22.6709 16.2117L28.2465 8.91977C28.4797 8.61477 28.915 8.55454 29.2223 8.78475L29.3459 8.8774C29.6575 9.11084 29.7187 9.55362 29.4822 9.86285L22.5968 18.8657C22.3069 19.2448 21.7309 19.2289 21.4622 18.8344L16.0594 10.9007Z" fill="#588157" stroke="#588157" stroke-width="0.8"/>
</svg>
